<?xml version="1.0" encoding="utf-8"?>
<!-- Generator: Adobe Illustrator 17.0.0, SVG Export Plug-In . SVG Version: 6.00 Build 0)  -->
<!DOCTYPE svg PUBLIC "-//W3C//DTD SVG 1.1//EN" "http://www.w3.org/Graphics/SVG/1.1/DTD/svg11.dtd">
<svg version="1.1" id="Layer_1" xmlns="http://www.w3.org/2000/svg" xmlns:xlink="http://www.w3.org/1999/xlink" x="0px" y="0px"
	 width="499px" height="495.405px" viewBox="-42.027 -59.661 499 495.405" enable-background="new -42.027 -59.661 499 495.405"
	 xml:space="preserve">
<g>
	<polygon fill="none" stroke="#F9F9F9" stroke-width="3" stroke-miterlimit="10" points="315.655,198.721 263.594,247.295 
		315.655,299.356 416.289,198.721 315.655,98.086 262.551,151.189 	"/>
	<polygon fill="none" stroke="#F9F9F9" stroke-width="3" stroke-miterlimit="10" points="209.222,308.109 160.648,256.049 
		108.588,308.109 209.222,408.744 309.857,308.109 256.754,255.006 	"/>
	<line fill="none" stroke="#F9F9F9" stroke-width="3" stroke-miterlimit="10" x1="416.289" y1="198.721" x2="416.289" y2="93"/>
	<path fill="none" stroke="#F9F9F9" stroke-width="3" stroke-miterlimit="10" d="M315.655,98.086"/>
	<polyline fill="none" stroke="#F9F9F9" stroke-width="3" stroke-miterlimit="10" points="416.289,93 315.655,0 315.655,98.086 	"/>
	<polygon fill="none" stroke="#F9F9F9" stroke-width="3" stroke-miterlimit="10" points="153.738,153.635 100.635,100.532 
		0,201.167 100.635,301.802 152.695,249.741 100.635,201.167 	"/>
	<line fill="none" stroke="#F9F9F9" stroke-width="3" stroke-miterlimit="10" x1="0" y1="201.167" x2="0" y2="95.446"/>
	<path fill="none" stroke="#F9F9F9" stroke-width="3" stroke-miterlimit="10" d="M100.635,100.532"/>
	<polyline fill="none" stroke="#F9F9F9" stroke-width="3" stroke-miterlimit="10" points="0,95.446 100.635,2.446 100.635,100.532 	
		"/>
	<polyline fill="none" stroke="#F9F9F9" stroke-width="3" stroke-miterlimit="10" points="153.738,153.635 153.738,49.043 
		100.635,0 	"/>
</g>
<polygon fill="#FFFFFF" points="1318.887,248.322 1419.521,147.687 1471.582,199.748 1419.521,248.322 1472.624,295.853 
	1419.521,348.956 "/>
<path fill="#FFFFFF" d="M1546.578,353.956"/>
<polygon fill="#FFFFFF" points="1736.028,245.765 1635.393,346.4 1583.333,294.339 1635.393,245.765 1582.29,198.233 
	1635.393,145.13 "/>
<path fill="#FFFFFF" d="M1462.688,207.577"/>
<polygon fill="#FFFFFF" points="1527.954,456.318 1427.32,355.684 1479.38,303.623 1527.954,355.684 1575.486,302.581 
	1628.589,355.684 "/>
<polygon fill="#FFFFFF" points="1525.954,38.299 1626.589,138.933 1574.528,190.994 1525.954,138.933 1478.423,192.036 
	1425.32,138.933 "/>
<path fill="#FFFFFF" d="M1568.699,184.101"/>
<polyline fill="none" stroke="#F9F9F9" stroke-width="3" stroke-miterlimit="10" points="262.551,151.189 262.551,42 315.655,0 "/>
</svg>
