<?xml version="1.0" encoding="utf-8"?>
<!-- Generator: Adobe Illustrator 17.0.0, SVG Export Plug-In . SVG Version: 6.00 Build 0)  -->
<!DOCTYPE svg PUBLIC "-//W3C//DTD SVG 1.1//EN" "http://www.w3.org/Graphics/SVG/1.1/DTD/svg11.dtd">
<svg version="1.1" id="Capa_1" xmlns="http://www.w3.org/2000/svg" xmlns:xlink="http://www.w3.org/1999/xlink" x="0px" y="0px"
	 width="841.89px" height="595.28px" viewBox="0 0 841.89 595.28" enable-background="new 0 0 841.89 595.28" xml:space="preserve">
<path fill="#FFFFFF" d="M704.401,576.253L537.403,402.578c42.595-42.719,68.984-101.611,68.984-166.561
	C606.387,105.871,500.517,0,370.37,0S134.353,105.871,134.353,236.017S240.223,472.034,370.37,472.034
	c57.127,0,109.557-20.421,150.422-54.306L688.195,591.83c2.203,2.304,5.147,3.45,8.103,3.45c2.81,0,5.608-1.045,7.789-3.136
	C708.56,587.84,708.695,580.726,704.401,576.253z M370.37,449.556c-117.75,0-213.539-95.789-213.539-213.539
	S252.62,22.478,370.37,22.478s213.539,95.789,213.539,213.539S488.109,449.556,370.37,449.556z"/>
</svg>
